<svg xmlns="http://www.w3.org/2000/svg" width="1680.0" height="1360.0" viewBox="0 0 1680.0 1360.0" font-family="Arial, 'Liberation Sans', Helvetica, sans-serif">
<rect x="0.0" y="0.0" width="1680.0" height="1360.0" fill="#fdfdfb"/>
<rect fill="none" stroke="#8a6d3b" stroke-width="0.8" x="65.6" y="65.6" width="1548.8" height="1228.8"/>
<text x="194.7" y="78.4" font-size="12.0" text-anchor="middle" dominant-baseline="central" fill="#8a6d3b">6</text>
<text x="194.7" y="1281.6" font-size="12.0" text-anchor="middle" dominant-baseline="central" fill="#8a6d3b">6</text>
<polyline fill="none" stroke="#8a6d3b" stroke-width="0.8" points="323.7,65.6 323.7,81.0"/>
<polyline fill="none" stroke="#8a6d3b" stroke-width="0.8" points="323.7,1294.4 323.7,1279.0"/>
<text x="452.8" y="78.4" font-size="12.0" text-anchor="middle" dominant-baseline="central" fill="#8a6d3b">5</text>
<text x="452.8" y="1281.6" font-size="12.0" text-anchor="middle" dominant-baseline="central" fill="#8a6d3b">5</text>
<polyline fill="none" stroke="#8a6d3b" stroke-width="0.8" points="581.9,65.6 581.9,81.0"/>
<polyline fill="none" stroke="#8a6d3b" stroke-width="0.8" points="581.9,1294.4 581.9,1279.0"/>
<text x="710.9" y="78.4" font-size="12.0" text-anchor="middle" dominant-baseline="central" fill="#8a6d3b">4</text>
<text x="710.9" y="1281.6" font-size="12.0" text-anchor="middle" dominant-baseline="central" fill="#8a6d3b">4</text>
<polyline fill="none" stroke="#8a6d3b" stroke-width="0.8" points="840.0,65.6 840.0,81.0"/>
<polyline fill="none" stroke="#8a6d3b" stroke-width="0.8" points="840.0,1294.4 840.0,1279.0"/>
<text x="969.1" y="78.4" font-size="12.0" text-anchor="middle" dominant-baseline="central" fill="#8a6d3b">3</text>
<text x="969.1" y="1281.6" font-size="12.0" text-anchor="middle" dominant-baseline="central" fill="#8a6d3b">3</text>
<polyline fill="none" stroke="#8a6d3b" stroke-width="0.8" points="1098.1,65.6 1098.1,81.0"/>
<polyline fill="none" stroke="#8a6d3b" stroke-width="0.8" points="1098.1,1294.4 1098.1,1279.0"/>
<text x="1227.2" y="78.4" font-size="12.0" text-anchor="middle" dominant-baseline="central" fill="#8a6d3b">2</text>
<text x="1227.2" y="1281.6" font-size="12.0" text-anchor="middle" dominant-baseline="central" fill="#8a6d3b">2</text>
<polyline fill="none" stroke="#8a6d3b" stroke-width="0.8" points="1356.3,65.6 1356.3,81.0"/>
<polyline fill="none" stroke="#8a6d3b" stroke-width="0.8" points="1356.3,1294.4 1356.3,1279.0"/>
<text x="1485.3" y="78.4" font-size="12.0" text-anchor="middle" dominant-baseline="central" fill="#8a6d3b">1</text>
<text x="1485.3" y="1281.6" font-size="12.0" text-anchor="middle" dominant-baseline="central" fill="#8a6d3b">1</text>
<text x="78.4" y="219.2" font-size="12.0" text-anchor="middle" dominant-baseline="central" fill="#8a6d3b">A</text>
<text x="1601.6" y="219.2" font-size="12.0" text-anchor="middle" dominant-baseline="central" fill="#8a6d3b">A</text>
<polyline fill="none" stroke="#8a6d3b" stroke-width="0.8" points="65.6,372.8 81.0,372.8"/>
<polyline fill="none" stroke="#8a6d3b" stroke-width="0.8" points="1614.4,372.8 1599.0,372.8"/>
<text x="78.4" y="526.4" font-size="12.0" text-anchor="middle" dominant-baseline="central" fill="#8a6d3b">B</text>
<text x="1601.6" y="526.4" font-size="12.0" text-anchor="middle" dominant-baseline="central" fill="#8a6d3b">B</text>
<polyline fill="none" stroke="#8a6d3b" stroke-width="0.8" points="65.6,680.0 81.0,680.0"/>
<polyline fill="none" stroke="#8a6d3b" stroke-width="0.8" points="1614.4,680.0 1599.0,680.0"/>
<text x="78.4" y="833.6" font-size="12.0" text-anchor="middle" dominant-baseline="central" fill="#8a6d3b">C</text>
<text x="1601.6" y="833.6" font-size="12.0" text-anchor="middle" dominant-baseline="central" fill="#8a6d3b">C</text>
<polyline fill="none" stroke="#8a6d3b" stroke-width="0.8" points="65.6,987.2 81.0,987.2"/>
<polyline fill="none" stroke="#8a6d3b" stroke-width="0.8" points="1614.4,987.2 1599.0,987.2"/>
<text x="78.4" y="1140.8" font-size="12.0" text-anchor="middle" dominant-baseline="central" fill="#8a6d3b">D</text>
<text x="1601.6" y="1140.8" font-size="12.0" text-anchor="middle" dominant-baseline="central" fill="#8a6d3b">D</text>
<rect fill="#fffef8" stroke="#8a6d3b" stroke-width="0.8" x="1254.4" y="1169.0" width="360.0" height="125.4"/>
<polyline fill="none" stroke="#8a6d3b" stroke-width="0.5" points="1254.4,1191.0 1614.4,1191.0"/>
<polyline fill="none" stroke="#8a6d3b" stroke-width="0.5" points="1254.4,1213.0 1614.4,1213.0"/>
<text x="1258.4" y="1202.0" font-size="11.0" dominant-baseline="central" fill="#333333">Sheet: Sheet 1</text>
<polyline fill="none" stroke="#8a6d3b" stroke-width="0.5" points="1254.4,1250.4 1614.4,1250.4"/>
<text x="1258.4" y="1231.7" font-size="13.0" dominant-baseline="central" fill="#333333" font-weight="bold">Title: Sheet 1</text>
<polyline fill="none" stroke="#8a6d3b" stroke-width="0.5" points="1254.4,1272.4 1614.4,1272.4"/>
<text x="1258.4" y="1261.4" font-size="11.0" dominant-baseline="central" fill="#333333">Size: </text>
<polyline fill="none" stroke="#8a6d3b" stroke-width="0.5" points="1362.4,1250.4 1362.4,1272.4"/>
<text x="1366.4" y="1261.4" font-size="11.0" dominant-baseline="central" fill="#333333">Date: </text>
<polyline fill="none" stroke="#8a6d3b" stroke-width="0.5" points="1513.6,1250.4 1513.6,1272.4"/>
<text x="1517.6" y="1261.4" font-size="11.0" dominant-baseline="central" fill="#333333" font-weight="bold">Rev: </text>
<polyline fill="none" stroke="#8a6d3b" stroke-width="0.5" points="1513.6,1272.4 1513.6,1294.4"/>
<text x="1517.6" y="1283.4" font-size="11.0" dominant-baseline="central" fill="#333333">Id: 1/1</text>
<polyline fill="none" stroke="#0a7d2c" stroke-width="0.8" points="520.0,680.0 520.0,760.0"/>
<rect fill="none" stroke="#333333" stroke-width="0.8" x="41.6" y="1313.6" width="3.2" height="3.2"/>
<rect fill="none" stroke="#222222" stroke-width="0.8" x="520.0" y="680.0" width="80.0" height="160.0"/>
<polyline fill="none" stroke="#222222" stroke-width="0.8" points="520.0,680.0 524.8,688.0 520.0,696.0"/>
<polyline fill="none" stroke="#222222" stroke-width="0.8" points="560.0,800.0 560.0,840.0"/>
<text x="48.0" y="1310.4" font-size="7.0" text-anchor="start" dominant-baseline="text-after-edge" fill="#555555" transform="rotate(90 48 1310.4)">HELLO</text>
<text x="520.0" y="680.0" font-size="7.0" text-anchor="middle" dominant-baseline="central" fill="#1560bd" transform="rotate(90 520 680)">R1</text>
<text x="552.0" y="648.0" font-size="7.0" text-anchor="start" dominant-baseline="central" fill="#1560bd" transform="rotate(90 552 648)">10k</text>
</svg>
